<svg viewBox="0 0 330 200" xmlns="http://www.w3.org/2000/svg"><g><g><g><g><g><line x1="41.140000343322754" y1="177.95999908447266" x2="36.140000343322754" y2="177.95999908447266" style="visibility: inherit;" fill="rgb(0, 0, 0)" stroke="rgb(204, 204, 204)" stroke-width="1px"></line><line x1="41.140000343322754" y1="165.2485705784389" x2="36.140000343322754" y2="165.2485705784389" style="visibility: inherit;" fill="rgb(0, 0, 0)" stroke="rgb(204, 204, 204)" stroke-width="1px"></line><line x1="41.140000343322754" y1="152.53714207240515" x2="36.140000343322754" y2="152.53714207240515" style="visibility: inherit;" fill="rgb(0, 0, 0)" stroke="rgb(204, 204, 204)" stroke-width="1px"></line><line x1="41.140000343322754" y1="139.82571356637138" x2="36.140000343322754" y2="139.82571356637138" style="visibility: inherit;" fill="rgb(0, 0, 0)" stroke="rgb(204, 204, 204)" stroke-width="1px"></line><line x1="41.140000343322754" y1="127.11428506033761" x2="36.140000343322754" y2="127.11428506033761" style="visibility: inherit;" fill="rgb(0, 0, 0)" stroke="rgb(204, 204, 204)" stroke-width="1px"></line><line x1="41.140000343322754" y1="114.40285655430385" x2="36.140000343322754" y2="114.40285655430385" style="visibility: inherit;" fill="rgb(0, 0, 0)" stroke="rgb(204, 204, 204)" stroke-width="1px"></line><line x1="41.140000343322754" y1="101.6914280482701" x2="36.140000343322754" y2="101.6914280482701" style="visibility: inherit;" fill="rgb(0, 0, 0)" stroke="rgb(204, 204, 204)" stroke-width="1px"></line><line x1="41.140000343322754" y1="88.97999954223633" x2="36.140000343322754" y2="88.97999954223633" style="visibility: inherit;" fill="rgb(0, 0, 0)" stroke="rgb(204, 204, 204)" stroke-width="1px"></line><line x1="41.140000343322754" y1="76.26857103620257" x2="36.140000343322754" y2="76.26857103620257" style="visibility: inherit;" fill="rgb(0, 0, 0)" stroke="rgb(204, 204, 204)" stroke-width="1px"></line><line x1="41.140000343322754" y1="63.557142530168804" x2="36.140000343322754" y2="63.557142530168804" style="visibility: inherit;" fill="rgb(0, 0, 0)" stroke="rgb(204, 204, 204)" stroke-width="1px"></line><line x1="41.140000343322754" y1="50.84571402413505" x2="36.140000343322754" y2="50.84571402413505" style="visibility: inherit;" fill="rgb(0, 0, 0)" stroke="rgb(204, 204, 204)" stroke-width="1px"></line><line x1="41.140000343322754" y1="38.13428551810128" x2="36.140000343322754" y2="38.13428551810128" style="visibility: inherit;" fill="rgb(0, 0, 0)" stroke="rgb(204, 204, 204)" stroke-width="1px"></line><line x1="41.140000343322754" y1="25.42285701206754" x2="36.140000343322754" y2="25.42285701206754" style="visibility: inherit;" fill="rgb(0, 0, 0)" stroke="rgb(204, 204, 204)" stroke-width="1px"></line><line x1="41.140000343322754" y1="12.71142850603377" x2="36.140000343322754" y2="12.71142850603377" style="visibility: inherit;" fill="rgb(0, 0, 0)" stroke="rgb(204, 204, 204)" stroke-width="1px"></line><line x1="41.140000343322754" y1="0" x2="36.140000343322754" y2="0" style="visibility: inherit;" fill="rgb(0, 0, 0)" stroke="rgb(204, 204, 204)" stroke-width="1px"></line></g><g transform="translate(31.140000343322754, 0)"><text style="text-anchor: end; visibility: hidden; font-family: &quot;Helvetica Neue&quot;, sans-serif; font-size: 12px; font-weight: 200;" x="0" y="177.95999908447266" dx="0em" dy="0.3em" fill="rgb(50, 49, 63)" stroke="none" stroke-width="1px">72</text><text style="text-anchor: end; visibility: inherit; font-family: &quot;Helvetica Neue&quot;, sans-serif; font-size: 12px; font-weight: 200;" x="0" y="165.2485705784389" dx="0em" dy="0.3em" fill="rgb(50, 49, 63)" stroke="none" stroke-width="1px">74</text><text style="text-anchor: end; visibility: hidden; font-family: &quot;Helvetica Neue&quot;, sans-serif; font-size: 12px; font-weight: 200;" x="0" y="152.53714207240515" dx="0em" dy="0.3em" fill="rgb(50, 49, 63)" stroke="none" stroke-width="1px">76</text><text style="text-anchor: end; visibility: inherit; font-family: &quot;Helvetica Neue&quot;, sans-serif; font-size: 12px; font-weight: 200;" x="0" y="139.82571356637138" dx="0em" dy="0.3em" fill="rgb(50, 49, 63)" stroke="none" stroke-width="1px">78</text><text style="text-anchor: end; visibility: hidden; font-family: &quot;Helvetica Neue&quot;, sans-serif; font-size: 12px; font-weight: 200;" x="0" y="127.11428506033761" dx="0em" dy="0.3em" fill="rgb(50, 49, 63)" stroke="none" stroke-width="1px">80</text><text style="text-anchor: end; visibility: inherit; font-family: &quot;Helvetica Neue&quot;, sans-serif; font-size: 12px; font-weight: 200;" x="0" y="114.40285655430385" dx="0em" dy="0.3em" fill="rgb(50, 49, 63)" stroke="none" stroke-width="1px">82</text><text style="text-anchor: end; visibility: hidden; font-family: &quot;Helvetica Neue&quot;, sans-serif; font-size: 12px; font-weight: 200;" x="0" y="101.6914280482701" dx="0em" dy="0.3em" fill="rgb(50, 49, 63)" stroke="none" stroke-width="1px">84</text><text style="text-anchor: end; visibility: inherit; font-family: &quot;Helvetica Neue&quot;, sans-serif; font-size: 12px; font-weight: 200;" x="0" y="88.97999954223633" dx="0em" dy="0.3em" fill="rgb(50, 49, 63)" stroke="none" stroke-width="1px">86</text><text style="text-anchor: end; visibility: hidden; font-family: &quot;Helvetica Neue&quot;, sans-serif; font-size: 12px; font-weight: 200;" x="0" y="76.26857103620257" dx="0em" dy="0.3em" fill="rgb(50, 49, 63)" stroke="none" stroke-width="1px">88</text><text style="text-anchor: end; visibility: inherit; font-family: &quot;Helvetica Neue&quot;, sans-serif; font-size: 12px; font-weight: 200;" x="0" y="63.557142530168804" dx="0em" dy="0.3em" fill="rgb(50, 49, 63)" stroke="none" stroke-width="1px">90</text><text style="text-anchor: end; visibility: hidden; font-family: &quot;Helvetica Neue&quot;, sans-serif; font-size: 12px; font-weight: 200;" x="0" y="50.84571402413505" dx="0em" dy="0.3em" fill="rgb(50, 49, 63)" stroke="none" stroke-width="1px">92</text><text style="text-anchor: end; visibility: inherit; font-family: &quot;Helvetica Neue&quot;, sans-serif; font-size: 12px; font-weight: 200;" x="0" y="38.13428551810128" dx="0em" dy="0.3em" fill="rgb(50, 49, 63)" stroke="none" stroke-width="1px">94</text><text style="text-anchor: end; visibility: hidden; font-family: &quot;Helvetica Neue&quot;, sans-serif; font-size: 12px; font-weight: 200;" x="0" y="25.42285701206754" dx="0em" dy="0.3em" fill="rgb(50, 49, 63)" stroke="none" stroke-width="1px">96</text><text style="text-anchor: end; visibility: inherit; font-family: &quot;Helvetica Neue&quot;, sans-serif; font-size: 12px; font-weight: 200;" x="0" y="12.71142850603377" dx="0em" dy="0.3em" fill="rgb(50, 49, 63)" stroke="none" stroke-width="1px">98</text><text style="text-anchor: end; visibility: hidden; font-family: &quot;Helvetica Neue&quot;, sans-serif; font-size: 12px; font-weight: 200;" x="0" y="0" dx="0em" dy="0.3em" fill="rgb(50, 49, 63)" stroke="none" stroke-width="1px">100</text></g><line x1="41.140000343322754" y1="0" x2="41.140000343322754" y2="177.95999908447266" fill="rgb(0, 0, 0)" stroke="rgb(204, 204, 204)" stroke-width="1px"></line></g></g><g transform="translate(41, 0)" clip-path="url(#clip_0)"><clipPath id="clip_0"><rect width="288" height="177"></rect></clipPath><g><g><g><line x1="0" y1="0" x2="0" y2="177.95999908447266" fill="rgb(0, 0, 0)" stroke="rgb(60, 60, 60)" stroke-width="1px" opacity="0.25"></line><line x1="24.071666638056435" y1="0" x2="24.071666638056435" y2="177.95999908447266" fill="rgb(0, 0, 0)" stroke="rgb(60, 60, 60)" stroke-width="1px" opacity="0.25"></line><line x1="48.14333327611287" y1="0" x2="48.14333327611287" y2="177.95999908447266" fill="rgb(0, 0, 0)" stroke="rgb(60, 60, 60)" stroke-width="1px" opacity="0.25"></line><line x1="72.21499991416931" y1="0" x2="72.21499991416931" y2="177.95999908447266" fill="rgb(0, 0, 0)" stroke="rgb(60, 60, 60)" stroke-width="1px" opacity="0.25"></line><line x1="96.28666655222574" y1="0" x2="96.28666655222574" y2="177.95999908447266" fill="rgb(0, 0, 0)" stroke="rgb(60, 60, 60)" stroke-width="1px" opacity="0.25"></line><line x1="120.3583331902822" y1="0" x2="120.3583331902822" y2="177.95999908447266" fill="rgb(0, 0, 0)" stroke="rgb(60, 60, 60)" stroke-width="1px" opacity="0.25"></line><line x1="144.42999982833862" y1="0" x2="144.42999982833862" y2="177.95999908447266" fill="rgb(0, 0, 0)" stroke="rgb(60, 60, 60)" stroke-width="1px" opacity="0.25"></line><line x1="168.50166646639508" y1="0" x2="168.50166646639508" y2="177.95999908447266" fill="rgb(0, 0, 0)" stroke="rgb(60, 60, 60)" stroke-width="1px" opacity="0.25"></line><line x1="192.57333310445148" y1="0" x2="192.57333310445148" y2="177.95999908447266" fill="rgb(0, 0, 0)" stroke="rgb(60, 60, 60)" stroke-width="1px" opacity="0.25"></line><line x1="216.64499974250793" y1="0" x2="216.64499974250793" y2="177.95999908447266" fill="rgb(0, 0, 0)" stroke="rgb(60, 60, 60)" stroke-width="1px" opacity="0.25"></line><line x1="240.7166663805644" y1="0" x2="240.7166663805644" y2="177.95999908447266" fill="rgb(0, 0, 0)" stroke="rgb(60, 60, 60)" stroke-width="1px" opacity="0.25"></line><line x1="264.7883330186208" y1="0" x2="264.7883330186208" y2="177.95999908447266" fill="rgb(0, 0, 0)" stroke="rgb(60, 60, 60)" stroke-width="1px" opacity="0.25"></line><line x1="288.85999965667725" y1="0" x2="288.85999965667725" y2="177.95999908447266" fill="rgb(0, 0, 0)" stroke="rgb(60, 60, 60)" stroke-width="1px" opacity="0.25"></line></g><g><line x1="0" y1="177.95999908447266" x2="288.85999965667725" y2="177.95999908447266" fill="rgb(0, 0, 0)" stroke="rgb(60, 60, 60)" stroke-width="1px" opacity="0.25"></line><line x1="0" y1="165.2485705784389" x2="288.85999965667725" y2="165.2485705784389" fill="rgb(0, 0, 0)" stroke="rgb(60, 60, 60)" stroke-width="1px" opacity="0.25"></line><line x1="0" y1="152.53714207240515" x2="288.85999965667725" y2="152.53714207240515" fill="rgb(0, 0, 0)" stroke="rgb(60, 60, 60)" stroke-width="1px" opacity="0.25"></line><line x1="0" y1="139.82571356637138" x2="288.85999965667725" y2="139.82571356637138" fill="rgb(0, 0, 0)" stroke="rgb(60, 60, 60)" stroke-width="1px" opacity="0.25"></line><line x1="0" y1="127.11428506033761" x2="288.85999965667725" y2="127.11428506033761" fill="rgb(0, 0, 0)" stroke="rgb(60, 60, 60)" stroke-width="1px" opacity="0.25"></line><line x1="0" y1="114.40285655430385" x2="288.85999965667725" y2="114.40285655430385" fill="rgb(0, 0, 0)" stroke="rgb(60, 60, 60)" stroke-width="1px" opacity="0.25"></line><line x1="0" y1="101.6914280482701" x2="288.85999965667725" y2="101.6914280482701" fill="rgb(0, 0, 0)" stroke="rgb(60, 60, 60)" stroke-width="1px" opacity="0.25"></line><line x1="0" y1="88.97999954223633" x2="288.85999965667725" y2="88.97999954223633" fill="rgb(0, 0, 0)" stroke="rgb(60, 60, 60)" stroke-width="1px" opacity="0.25"></line><line x1="0" y1="76.26857103620257" x2="288.85999965667725" y2="76.26857103620257" fill="rgb(0, 0, 0)" stroke="rgb(60, 60, 60)" stroke-width="1px" opacity="0.25"></line><line x1="0" y1="63.557142530168804" x2="288.85999965667725" y2="63.557142530168804" fill="rgb(0, 0, 0)" stroke="rgb(60, 60, 60)" stroke-width="1px" opacity="0.25"></line><line x1="0" y1="50.84571402413505" x2="288.85999965667725" y2="50.84571402413505" fill="rgb(0, 0, 0)" stroke="rgb(60, 60, 60)" stroke-width="1px" opacity="0.25"></line><line x1="0" y1="38.13428551810128" x2="288.85999965667725" y2="38.13428551810128" fill="rgb(0, 0, 0)" stroke="rgb(60, 60, 60)" stroke-width="1px" opacity="0.25"></line><line x1="0" y1="25.42285701206754" x2="288.85999965667725" y2="25.42285701206754" fill="rgb(0, 0, 0)" stroke="rgb(60, 60, 60)" stroke-width="1px" opacity="0.25"></line><line x1="0" y1="12.71142850603377" x2="288.85999965667725" y2="12.71142850603377" fill="rgb(0, 0, 0)" stroke="rgb(60, 60, 60)" stroke-width="1px" opacity="0.25"></line><line x1="0" y1="0" x2="288.85999965667725" y2="0" fill="rgb(0, 0, 0)" stroke="rgb(60, 60, 60)" stroke-width="1px" opacity="0.25"></line></g></g></g><g><g><line x1="0" y1="635.5714253016881" x2="288.85999965667725" y2="635.5714253016881" fill="rgb(0, 0, 0)" stroke="rgb(153, 153, 153)" stroke-width="1.5px"></line></g></g><g><g><line x1="24.071666638056435" y1="0" x2="24.071666638056435" y2="177.95999908447266" fill="rgb(0, 0, 0)" stroke="rgb(153, 153, 153)" stroke-width="1.5px"></line></g></g><g><g><g><g><g><path style="fill: none;" stroke="rgb(255, 112, 67)" stroke-width="2px" d="M31.29316662947337,197.4711217511902L33.700333293279016,169.71213387912397L36.107499957084656,143.83900032907826L38.514666620890296,129.10993762834246L40.92183328469594,117.95517664609393L43.32899994850158,111.38344933694795L45.73616661230723,104.92530519222115L48.14333327611287,98.52397850355636L50.55049993991852,94.69807816284799L52.95766660372416,92.40787494635941L55.36483326752981,91.03566886298394L57.77199993133545,90.21303374010296L60.1791665951411,89.71970028226636L62.58633325894674,89.4237892945098L64.99349992275238,86.70371144140472L67.40066658655803,85.07184154094875L69.80783325036367,84.09278324433451L72.21499991416931,83.50537117625889L74.62216657797497,80.61061301893619L77.02933324178059,76.33147673100348L79.43649990558625,73.76401658627103L81.84366656939189,72.22354828544108L84.25083323319754,73.84156014577839L86.65799989700317,74.8123654955579L89.06516656080882,75.39484806951492L91.47233322461446,75.74433738496172L93.87949988842011,75.95403089181573L96.28666655222574,76.07984696625931L98.6938332160314,76.15533660024455L101.10099987983703,76.20063037679063L103.50816654364269,73.6855208672878L105.91533320744831,72.17645520770506L108.32249987125397,68.7287301011293L110.72966653505962,66.66009505994303L113.13683319886525,65.41891404342452L115.5439998626709,64.67420543646317L117.95116652647654,64.22738027334807L120.3583331902822,61.41699947261563L122.76549985408782,59.73077099361859L125.17266651789348,58.71903390673975L127.57983318169912,58.11199165479954L129.98699984550476,57.747766303702704L132.3941665093104,57.529231093068816L134.80133317311606,54.85584366149588L137.20849983692167,53.25181120261614L139.61566650072734,52.28939172731141L142.02283316453298,49.16963494480882L144.42999982833862,44.75549517410448L146.83716649214426,42.107011311695516L149.24433315594993,40.51792099425495L151.65149981975557,39.56446680379261L154.05866648356118,38.99239428951577L156.46583314736682,38.649150780949725L158.8729998111725,38.44320467581031L161.28016647497813,38.31963701272667L163.68733313878377,38.24549641487647L166.0944998025894,38.201012056166405L168.50166646639508,38.17432144094033L170.90883313020072,38.15830707180476L173.31599979400633,38.14869845032331L175.72316645781197,38.14293327743448L178.13033312161764,38.13947417370119L180.53749978542328,35.59511301025452L182.94466644922892,34.06849631218648L185.3518331130346,33.152526293345744L187.75899977684023,32.60294428204125L190.16616644064584,32.27319507525854L192.57333310445148,32.07534555118892L194.98049976825715,31.956635836747125L197.3876664320628,31.885410008082033L199.79483309586843,31.842674510883057L202.20199975967407,31.81703321256353L204.60916642347973,31.8016484335719L207.01633308728537,31.79241756617685L209.423499751091,31.78687904573988L211.83066641489663,31.783555933477658L214.2378330787023,31.78156206612033L216.64499974250793,31.78036574570592L219.05216640631357,31.779647953457356L221.45933307011924,31.779217278108206L223.86649973392488,31.77895887289864L226.2736663977305,31.778803829772954L228.68083306153613,31.778710803897525L231.0879997253418,31.778654988372296L233.49516638914744,31.778621499057152L235.90233305295308,31.778601405468038L238.30949971675872,31.77858934931467L240.7166663805644,31.77858211562264L243.12383304437003,31.77857777540737L245.53099970817564,31.77857517127819L247.93816637198128,31.778573608800713L250.34533303578695,31.778572671314123L252.7524996995926,31.778572108822203L255.15966636339823,31.778571771327137L257.56683302720387,31.778571568830102L259.9739996910095,31.778571447331814L262.38116635481515,31.77857137443283" fill="none"></path></g></g></g></g><g opacity="0.2"><g><g><g><path style="fill: none;" stroke="rgb(255, 112, 67)" stroke-width="2px" d="M26.47883330186208,311.42999839782715L28.885999965667725,171.60433332170734L31.29316662947337,114.40285655430385L33.700333293279016,133.4699993133545L36.107499957084656,108.04714230128697L38.514666620890296,108.04714230128697L40.92183328469594,101.6914280482701L43.32899994850158,101.6914280482701L45.73616661230723,95.33571379525321L48.14333327611287,88.9800480324879L50.55049993991852,88.9800480324879L52.95766660372416,88.9800480324879L55.36483326752981,88.9800480324879L57.77199993133545,88.9800480324879L60.1791665951411,88.9800480324879L62.58633325894674,88.9800480324879L64.99349992275238,82.62428528921944L67.40066658655803,82.62428528921944L69.80783325036367,82.62428528921944L72.21499991416931,82.62428528921944L74.62216657797497,76.26857103620257L77.02933324178059,69.91285678318569L79.43649990558625,69.91285678318569L81.84366656939189,69.91285678318569L84.25083323319754,76.26857103620257L86.65799989700317,76.26857103620257L89.06516656080882,76.26857103620257L91.47233322461446,76.26857103620257L93.87949988842011,76.26857103620257L96.28666655222574,76.26857103620257L98.6938332160314,76.26857103620257L101.10099987983703,76.26857103620257L103.50816654364269,69.91285678318569L105.91533320744831,69.91285678318569L108.32249987125397,63.557142530168804L110.72966653505962,63.557142530168804L113.13683319886525,63.557142530168804L115.5439998626709,63.557142530168804L117.95116652647654,63.557142530168804L120.3583331902822,57.20142827715192L122.76549985408782,57.20142827715192L125.17266651789348,57.20142827715192L127.57983318169912,57.20142827715192L129.98699984550476,57.20142827715192L132.3941665093104,57.20142827715192L134.80133317311606,50.84576251438661L137.20849983692167,50.84576251438661L139.61566650072734,50.84576251438661L142.02283316453298,44.489999771118164L144.42999982833862,38.13428551810128L146.83716649214426,38.13428551810128L149.24433315594993,38.13428551810128L151.65149981975557,38.13428551810128L154.05866648356118,38.13428551810128L156.46583314736682,38.13428551810128L158.8729998111725,38.13428551810128L161.28016647497813,38.13428551810128L163.68733313878377,38.13428551810128L166.0944998025894,38.13428551810128L168.50166646639508,38.13428551810128L170.90883313020072,38.13428551810128L173.31599979400633,38.13428551810128L175.72316645781197,38.13428551810128L178.13033312161764,38.13428551810128L180.53749978542328,31.778571265084395L182.94466644922892,31.778571265084395L185.3518331130346,31.778571265084395L187.75899977684023,31.778571265084395L190.16616644064584,31.778571265084395L192.57333310445148,31.778571265084395L194.98049976825715,31.778571265084395L197.3876664320628,31.778571265084395L199.79483309586843,31.778571265084395L202.20199975967407,31.778571265084395L204.60916642347973,31.778571265084395L207.01633308728537,31.778571265084395L209.423499751091,31.778571265084395L211.83066641489663,31.778571265084395L214.2378330787023,31.778571265084395L216.64499974250793,31.778571265084395L219.05216640631357,31.778571265084395L221.45933307011924,31.778571265084395L223.86649973392488,31.778571265084395L226.2736663977305,31.778571265084395L228.68083306153613,31.778571265084395L231.0879997253418,31.778571265084395L233.49516638914744,31.778571265084395L235.90233305295308,31.778571265084395L238.30949971675872,31.778571265084395L240.7166663805644,31.778571265084395L243.12383304437003,31.778571265084395L245.53099970817564,31.778571265084395L247.93816637198128,31.778571265084395L250.34533303578695,31.778571265084395L252.7524996995926,31.778571265084395L255.15966636339823,31.778571265084395L257.56683302720387,31.778571265084395L259.9739996910095,31.778571265084395L262.38116635481515,31.778571265084395" fill="none"></path></g></g></g></g></g></g><g transform="translate(41, 177)" clip-path="url(#clip_1)"><clipPath id="clip_1"><rect width="288" height="22"></rect></clipPath><g><g><line x1="0" y1="0" x2="0" y2="5" style="visibility: inherit;" fill="rgb(0, 0, 0)" stroke="rgb(204, 204, 204)" stroke-width="1px"></line><line x1="24.071666638056435" y1="0" x2="24.071666638056435" y2="5" style="visibility: inherit;" fill="rgb(0, 0, 0)" stroke="rgb(204, 204, 204)" stroke-width="1px"></line><line x1="48.14333327611287" y1="0" x2="48.14333327611287" y2="5" style="visibility: inherit;" fill="rgb(0, 0, 0)" stroke="rgb(204, 204, 204)" stroke-width="1px"></line><line x1="72.21499991416931" y1="0" x2="72.21499991416931" y2="5" style="visibility: inherit;" fill="rgb(0, 0, 0)" stroke="rgb(204, 204, 204)" stroke-width="1px"></line><line x1="96.28666655222574" y1="0" x2="96.28666655222574" y2="5" style="visibility: inherit;" fill="rgb(0, 0, 0)" stroke="rgb(204, 204, 204)" stroke-width="1px"></line><line x1="120.3583331902822" y1="0" x2="120.3583331902822" y2="5" style="visibility: inherit;" fill="rgb(0, 0, 0)" stroke="rgb(204, 204, 204)" stroke-width="1px"></line><line x1="144.42999982833862" y1="0" x2="144.42999982833862" y2="5" style="visibility: inherit;" fill="rgb(0, 0, 0)" stroke="rgb(204, 204, 204)" stroke-width="1px"></line><line x1="168.50166646639508" y1="0" x2="168.50166646639508" y2="5" style="visibility: inherit;" fill="rgb(0, 0, 0)" stroke="rgb(204, 204, 204)" stroke-width="1px"></line><line x1="192.57333310445148" y1="0" x2="192.57333310445148" y2="5" style="visibility: inherit;" fill="rgb(0, 0, 0)" stroke="rgb(204, 204, 204)" stroke-width="1px"></line><line x1="216.64499974250793" y1="0" x2="216.64499974250793" y2="5" style="visibility: inherit;" fill="rgb(0, 0, 0)" stroke="rgb(204, 204, 204)" stroke-width="1px"></line><line x1="240.7166663805644" y1="0" x2="240.7166663805644" y2="5" style="visibility: inherit;" fill="rgb(0, 0, 0)" stroke="rgb(204, 204, 204)" stroke-width="1px"></line><line x1="264.7883330186208" y1="0" x2="264.7883330186208" y2="5" style="visibility: inherit;" fill="rgb(0, 0, 0)" stroke="rgb(204, 204, 204)" stroke-width="1px"></line><line x1="288.85999965667725" y1="0" x2="288.85999965667725" y2="5" style="visibility: inherit;" fill="rgb(0, 0, 0)" stroke="rgb(204, 204, 204)" stroke-width="1px"></line></g><g transform="translate(0, 8)"><text style="text-anchor: middle; visibility: hidden; font-family: &quot;Helvetica Neue&quot;, sans-serif; font-size: 12px; font-weight: 200;" x="0" y="0" dx="0em" dy="0.95em" fill="rgb(50, 49, 63)" stroke="none" stroke-width="1px">-10</text><text style="text-anchor: middle; visibility: inherit; font-family: &quot;Helvetica Neue&quot;, sans-serif; font-size: 12px; font-weight: 200;" x="24.071666638056435" y="0" dx="0em" dy="0.95em" fill="rgb(50, 49, 63)" stroke="none" stroke-width="1px">0</text><text style="text-anchor: middle; visibility: hidden; font-family: &quot;Helvetica Neue&quot;, sans-serif; font-size: 12px; font-weight: 200;" x="48.14333327611287" y="0" dx="0em" dy="0.95em" fill="rgb(50, 49, 63)" stroke="none" stroke-width="1px">10</text><text style="text-anchor: middle; visibility: inherit; font-family: &quot;Helvetica Neue&quot;, sans-serif; font-size: 12px; font-weight: 200;" x="72.21499991416931" y="0" dx="0em" dy="0.95em" fill="rgb(50, 49, 63)" stroke="none" stroke-width="1px">20</text><text style="text-anchor: middle; visibility: hidden; font-family: &quot;Helvetica Neue&quot;, sans-serif; font-size: 12px; font-weight: 200;" x="96.28666655222574" y="0" dx="0em" dy="0.95em" fill="rgb(50, 49, 63)" stroke="none" stroke-width="1px">30</text><text style="text-anchor: middle; visibility: inherit; font-family: &quot;Helvetica Neue&quot;, sans-serif; font-size: 12px; font-weight: 200;" x="120.3583331902822" y="0" dx="0em" dy="0.95em" fill="rgb(50, 49, 63)" stroke="none" stroke-width="1px">40</text><text style="text-anchor: middle; visibility: hidden; font-family: &quot;Helvetica Neue&quot;, sans-serif; font-size: 12px; font-weight: 200;" x="144.42999982833862" y="0" dx="0em" dy="0.95em" fill="rgb(50, 49, 63)" stroke="none" stroke-width="1px">50</text><text style="text-anchor: middle; visibility: inherit; font-family: &quot;Helvetica Neue&quot;, sans-serif; font-size: 12px; font-weight: 200;" x="168.50166646639508" y="0" dx="0em" dy="0.95em" fill="rgb(50, 49, 63)" stroke="none" stroke-width="1px">60</text><text style="text-anchor: middle; visibility: hidden; font-family: &quot;Helvetica Neue&quot;, sans-serif; font-size: 12px; font-weight: 200;" x="192.57333310445148" y="0" dx="0em" dy="0.95em" fill="rgb(50, 49, 63)" stroke="none" stroke-width="1px">70</text><text style="text-anchor: middle; visibility: inherit; font-family: &quot;Helvetica Neue&quot;, sans-serif; font-size: 12px; font-weight: 200;" x="216.64499974250793" y="0" dx="0em" dy="0.95em" fill="rgb(50, 49, 63)" stroke="none" stroke-width="1px">80</text><text style="text-anchor: middle; visibility: hidden; font-family: &quot;Helvetica Neue&quot;, sans-serif; font-size: 12px; font-weight: 200;" x="240.7166663805644" y="0" dx="0em" dy="0.95em" fill="rgb(50, 49, 63)" stroke="none" stroke-width="1px">90</text><text style="text-anchor: middle; visibility: inherit; font-family: &quot;Helvetica Neue&quot;, sans-serif; font-size: 12px; font-weight: 200;" x="264.7883330186208" y="0" dx="0em" dy="0.95em" fill="rgb(50, 49, 63)" stroke="none" stroke-width="1px">100</text><text style="text-anchor: middle; visibility: hidden; font-family: &quot;Helvetica Neue&quot;, sans-serif; font-size: 12px; font-weight: 200;" x="288.85999965667725" y="0" dx="0em" dy="0.95em" fill="rgb(50, 49, 63)" stroke="none" stroke-width="1px">110</text></g><line x1="0" y1="0" x2="288.85999965667725" y2="0" fill="rgb(0, 0, 0)" stroke="rgb(204, 204, 204)" stroke-width="1px"></line></g></g></g></g></svg>