<svg viewBox="0 0 330 200" xmlns="http://www.w3.org/2000/svg"><g><g><g><g><g><line x1="51.52000045776367" y1="177.95999908447266" x2="46.52000045776367" y2="177.95999908447266" style="visibility: inherit;" fill="rgb(0, 0, 0)" stroke="rgb(204, 204, 204)" stroke-width="1px"></line><line x1="51.52000045776367" y1="161.7818173495206" x2="46.52000045776367" y2="161.7818173495206" style="visibility: inherit;" fill="rgb(0, 0, 0)" stroke="rgb(204, 204, 204)" stroke-width="1px"></line><line x1="51.52000045776367" y1="145.60363561456853" x2="46.52000045776367" y2="145.60363561456853" style="visibility: inherit;" fill="rgb(0, 0, 0)" stroke="rgb(204, 204, 204)" stroke-width="1px"></line><line x1="51.52000045776367" y1="129.42545387961647" x2="46.52000045776367" y2="129.42545387961647" style="visibility: inherit;" fill="rgb(0, 0, 0)" stroke="rgb(204, 204, 204)" stroke-width="1px"></line><line x1="51.52000045776367" y1="113.24727214466442" x2="46.52000045776367" y2="113.24727214466442" style="visibility: inherit;" fill="rgb(0, 0, 0)" stroke="rgb(204, 204, 204)" stroke-width="1px"></line><line x1="51.52000045776367" y1="97.06909040971236" x2="46.52000045776367" y2="97.06909040971236" style="visibility: inherit;" fill="rgb(0, 0, 0)" stroke="rgb(204, 204, 204)" stroke-width="1px"></line><line x1="51.52000045776367" y1="80.89090867476031" x2="46.52000045776367" y2="80.89090867476031" style="visibility: inherit;" fill="rgb(0, 0, 0)" stroke="rgb(204, 204, 204)" stroke-width="1px"></line><line x1="51.52000045776367" y1="64.71272693980826" x2="46.52000045776367" y2="64.71272693980826" style="visibility: inherit;" fill="rgb(0, 0, 0)" stroke="rgb(204, 204, 204)" stroke-width="1px"></line><line x1="51.52000045776367" y1="48.53454520485619" x2="46.52000045776367" y2="48.53454520485619" style="visibility: inherit;" fill="rgb(0, 0, 0)" stroke="rgb(204, 204, 204)" stroke-width="1px"></line><line x1="51.52000045776367" y1="32.356363469904124" x2="46.52000045776367" y2="32.356363469904124" style="visibility: inherit;" fill="rgb(0, 0, 0)" stroke="rgb(204, 204, 204)" stroke-width="1px"></line><line x1="51.52000045776367" y1="16.178181734952062" x2="46.52000045776367" y2="16.178181734952062" style="visibility: inherit;" fill="rgb(0, 0, 0)" stroke="rgb(204, 204, 204)" stroke-width="1px"></line><line x1="51.52000045776367" y1="0" x2="46.52000045776367" y2="0" style="visibility: inherit;" fill="rgb(0, 0, 0)" stroke="rgb(204, 204, 204)" stroke-width="1px"></line></g><g transform="translate(41.52000045776367, 0)"><text style="text-anchor: end; visibility: hidden; font-family: &quot;Helvetica Neue&quot;, sans-serif; font-size: 12px; font-weight: 200;" x="0" y="177.95999908447266" dx="0em" dy="0.3em" fill="rgb(50, 49, 63)" stroke="none" stroke-width="1px">-0.1</text><text style="text-anchor: end; visibility: inherit; font-family: &quot;Helvetica Neue&quot;, sans-serif; font-size: 12px; font-weight: 200;" x="0" y="161.7818173495206" dx="0em" dy="0.3em" fill="rgb(50, 49, 63)" stroke="none" stroke-width="1px">0</text><text style="text-anchor: end; visibility: hidden; font-family: &quot;Helvetica Neue&quot;, sans-serif; font-size: 12px; font-weight: 200;" x="0" y="145.60363561456853" dx="0em" dy="0.3em" fill="rgb(50, 49, 63)" stroke="none" stroke-width="1px">0.1</text><text style="text-anchor: end; visibility: inherit; font-family: &quot;Helvetica Neue&quot;, sans-serif; font-size: 12px; font-weight: 200;" x="0" y="129.42545387961647" dx="0em" dy="0.3em" fill="rgb(50, 49, 63)" stroke="none" stroke-width="1px">0.2</text><text style="text-anchor: end; visibility: hidden; font-family: &quot;Helvetica Neue&quot;, sans-serif; font-size: 12px; font-weight: 200;" x="0" y="113.24727214466442" dx="0em" dy="0.3em" fill="rgb(50, 49, 63)" stroke="none" stroke-width="1px">0.3</text><text style="text-anchor: end; visibility: inherit; font-family: &quot;Helvetica Neue&quot;, sans-serif; font-size: 12px; font-weight: 200;" x="0" y="97.06909040971236" dx="0em" dy="0.3em" fill="rgb(50, 49, 63)" stroke="none" stroke-width="1px">0.4</text><text style="text-anchor: end; visibility: hidden; font-family: &quot;Helvetica Neue&quot;, sans-serif; font-size: 12px; font-weight: 200;" x="0" y="80.89090867476031" dx="0em" dy="0.3em" fill="rgb(50, 49, 63)" stroke="none" stroke-width="1px">0.5</text><text style="text-anchor: end; visibility: inherit; font-family: &quot;Helvetica Neue&quot;, sans-serif; font-size: 12px; font-weight: 200;" x="0" y="64.71272693980826" dx="0em" dy="0.3em" fill="rgb(50, 49, 63)" stroke="none" stroke-width="1px">0.6</text><text style="text-anchor: end; visibility: hidden; font-family: &quot;Helvetica Neue&quot;, sans-serif; font-size: 12px; font-weight: 200;" x="0" y="48.53454520485619" dx="0em" dy="0.3em" fill="rgb(50, 49, 63)" stroke="none" stroke-width="1px">0.7</text><text style="text-anchor: end; visibility: inherit; font-family: &quot;Helvetica Neue&quot;, sans-serif; font-size: 12px; font-weight: 200;" x="0" y="32.356363469904124" dx="0em" dy="0.3em" fill="rgb(50, 49, 63)" stroke="none" stroke-width="1px">0.8</text><text style="text-anchor: end; visibility: hidden; font-family: &quot;Helvetica Neue&quot;, sans-serif; font-size: 12px; font-weight: 200;" x="0" y="16.178181734952062" dx="0em" dy="0.3em" fill="rgb(50, 49, 63)" stroke="none" stroke-width="1px">0.9</text><text style="text-anchor: end; visibility: hidden; font-family: &quot;Helvetica Neue&quot;, sans-serif; font-size: 12px; font-weight: 200;" x="0" y="0" dx="0em" dy="0.3em" fill="rgb(50, 49, 63)" stroke="none" stroke-width="1px">1</text></g><line x1="51.52000045776367" y1="0" x2="51.52000045776367" y2="177.95999908447266" fill="rgb(0, 0, 0)" stroke="rgb(204, 204, 204)" stroke-width="1px"></line></g></g><g transform="translate(51, 0)" clip-path="url(#clip_0)"><clipPath id="clip_0"><rect width="278" height="177"></rect></clipPath><g><g><g><line x1="0" y1="0" x2="0" y2="177.95999908447266" fill="rgb(0, 0, 0)" stroke="rgb(60, 60, 60)" stroke-width="1px" opacity="0.25"></line><line x1="23.20666662851969" y1="0" x2="23.20666662851969" y2="177.95999908447266" fill="rgb(0, 0, 0)" stroke="rgb(60, 60, 60)" stroke-width="1px" opacity="0.25"></line><line x1="46.41333325703938" y1="0" x2="46.41333325703938" y2="177.95999908447266" fill="rgb(0, 0, 0)" stroke="rgb(60, 60, 60)" stroke-width="1px" opacity="0.25"></line><line x1="69.61999988555908" y1="0" x2="69.61999988555908" y2="177.95999908447266" fill="rgb(0, 0, 0)" stroke="rgb(60, 60, 60)" stroke-width="1px" opacity="0.25"></line><line x1="92.82666651407877" y1="0" x2="92.82666651407877" y2="177.95999908447266" fill="rgb(0, 0, 0)" stroke="rgb(60, 60, 60)" stroke-width="1px" opacity="0.25"></line><line x1="116.03333314259848" y1="0" x2="116.03333314259848" y2="177.95999908447266" fill="rgb(0, 0, 0)" stroke="rgb(60, 60, 60)" stroke-width="1px" opacity="0.25"></line><line x1="139.23999977111816" y1="0" x2="139.23999977111816" y2="177.95999908447266" fill="rgb(0, 0, 0)" stroke="rgb(60, 60, 60)" stroke-width="1px" opacity="0.25"></line><line x1="162.44666639963788" y1="0" x2="162.44666639963788" y2="177.95999908447266" fill="rgb(0, 0, 0)" stroke="rgb(60, 60, 60)" stroke-width="1px" opacity="0.25"></line><line x1="185.65333302815753" y1="0" x2="185.65333302815753" y2="177.95999908447266" fill="rgb(0, 0, 0)" stroke="rgb(60, 60, 60)" stroke-width="1px" opacity="0.25"></line><line x1="208.85999965667725" y1="0" x2="208.85999965667725" y2="177.95999908447266" fill="rgb(0, 0, 0)" stroke="rgb(60, 60, 60)" stroke-width="1px" opacity="0.25"></line><line x1="232.06666628519696" y1="0" x2="232.06666628519696" y2="177.95999908447266" fill="rgb(0, 0, 0)" stroke="rgb(60, 60, 60)" stroke-width="1px" opacity="0.25"></line><line x1="255.27333291371662" y1="0" x2="255.27333291371662" y2="177.95999908447266" fill="rgb(0, 0, 0)" stroke="rgb(60, 60, 60)" stroke-width="1px" opacity="0.25"></line><line x1="278.4799995422363" y1="0" x2="278.4799995422363" y2="177.95999908447266" fill="rgb(0, 0, 0)" stroke="rgb(60, 60, 60)" stroke-width="1px" opacity="0.25"></line></g><g><line x1="0" y1="177.95999908447266" x2="278.4799995422363" y2="177.95999908447266" fill="rgb(0, 0, 0)" stroke="rgb(60, 60, 60)" stroke-width="1px" opacity="0.25"></line><line x1="0" y1="161.7818173495206" x2="278.4799995422363" y2="161.7818173495206" fill="rgb(0, 0, 0)" stroke="rgb(60, 60, 60)" stroke-width="1px" opacity="0.25"></line><line x1="0" y1="145.60363561456853" x2="278.4799995422363" y2="145.60363561456853" fill="rgb(0, 0, 0)" stroke="rgb(60, 60, 60)" stroke-width="1px" opacity="0.25"></line><line x1="0" y1="129.42545387961647" x2="278.4799995422363" y2="129.42545387961647" fill="rgb(0, 0, 0)" stroke="rgb(60, 60, 60)" stroke-width="1px" opacity="0.25"></line><line x1="0" y1="113.24727214466442" x2="278.4799995422363" y2="113.24727214466442" fill="rgb(0, 0, 0)" stroke="rgb(60, 60, 60)" stroke-width="1px" opacity="0.25"></line><line x1="0" y1="97.06909040971236" x2="278.4799995422363" y2="97.06909040971236" fill="rgb(0, 0, 0)" stroke="rgb(60, 60, 60)" stroke-width="1px" opacity="0.25"></line><line x1="0" y1="80.89090867476031" x2="278.4799995422363" y2="80.89090867476031" fill="rgb(0, 0, 0)" stroke="rgb(60, 60, 60)" stroke-width="1px" opacity="0.25"></line><line x1="0" y1="64.71272693980826" x2="278.4799995422363" y2="64.71272693980826" fill="rgb(0, 0, 0)" stroke="rgb(60, 60, 60)" stroke-width="1px" opacity="0.25"></line><line x1="0" y1="48.53454520485619" x2="278.4799995422363" y2="48.53454520485619" fill="rgb(0, 0, 0)" stroke="rgb(60, 60, 60)" stroke-width="1px" opacity="0.25"></line><line x1="0" y1="32.356363469904124" x2="278.4799995422363" y2="32.356363469904124" fill="rgb(0, 0, 0)" stroke="rgb(60, 60, 60)" stroke-width="1px" opacity="0.25"></line><line x1="0" y1="16.178181734952062" x2="278.4799995422363" y2="16.178181734952062" fill="rgb(0, 0, 0)" stroke="rgb(60, 60, 60)" stroke-width="1px" opacity="0.25"></line><line x1="0" y1="0" x2="278.4799995422363" y2="0" fill="rgb(0, 0, 0)" stroke="rgb(60, 60, 60)" stroke-width="1px" opacity="0.25"></line></g></g></g><g><g><line x1="0" y1="161.7818173495206" x2="278.4799995422363" y2="161.7818173495206" fill="rgb(0, 0, 0)" stroke="rgb(153, 153, 153)" stroke-width="1.5px"></line></g></g><g><g><line x1="23.20666662851969" y1="0" x2="23.20666662851969" y2="177.95999908447266" fill="rgb(0, 0, 0)" stroke="rgb(153, 153, 153)" stroke-width="1.5px"></line></g></g><g><g><g><g><g><path style="fill: none;" stroke="rgb(255, 112, 67)" stroke-width="2px" d="M27.847999954223635,-0.38243832395869504L30.168666617075605,12.873441430685517L32.48933327992757,24.40561391506222L34.80999994277954,34.32515160786821L37.13066660563151,42.80597346207418L39.45133326848348,50.04087756197474L41.77199993133545,56.21919357040379L44.09266659418741,61.51435227815777L46.41333325703938,66.07801714772394L48.73399991989135,70.03889876849736L51.05466658274332,73.50359530442618L53.3753332455953,76.55909184655948L55.69599990844727,79.27583768541753L58.01666657129924,81.71050201316136L60.33733323415121,83.90860961876402L62.65799989700317,85.90689566193979L64.97866655985514,87.73505715593801L67.29933322270712,89.41702664519478L69.61999988555908,90.97239995319693L71.94066654841106,92.41741407519748L74.26133321126302,93.76544876625404L76.581999874115,95.02773417733091L78.90266653696696,96.21376462840425L81.22333319981894,97.33154432185539L83.5439998626709,98.38801793777745L85.86466652552288,99.38914173450723L88.18533318837483,100.34008039659652L90.5059998512268,101.24539258913104L92.82666651407877,102.10898025832219L95.14733317693074,102.93433784052871L97.4679998397827,103.72458413421049L99.78866650263468,104.48257206154692L102.10933316548665,105.21077130642563L104.42999982833862,105.91133289684035L106.7506664911906,106.58617616811722L109.07133315404256,107.23710458376733L111.39199981689454,107.86577879821547L113.7126664797465,108.47372170874927L116.03333314259848,109.06199362636592L118.35399980545044,109.63192310120866L120.67466646830242,110.18469490980272L122.99533313115437,110.72136513555802L125.31599979400634,111.2428470739852L127.63666645685831,111.75000884824439L129.95733311971028,112.24363554899342L132.27799978256226,112.72445666162281L134.59866644541424,113.19317602272261L136.9193331082662,113.65069422445416L139.23999977111816,114.09770012350886L141.5606664339701,114.53453181890868L143.88133309682212,114.96155031440959L146.20199975967407,115.37918242852619L148.52266642252604,115.78782889658338L150.843333085378,116.18786708963421L153.16399974823,116.57965650298947L155.48466641108195,116.96358062112651L157.80533307393392,117.3399852501048L160.12599973678587,117.70915115996297L162.44666639963788,118.07135674232856L164.76733306248983,118.42685003293924L167.0879997253418,118.77586085399875L169.40866638819375,119.11868331458297L171.72933305104576,119.45564431012235L174.0499997138977,119.78688983454686L176.37066637674965,120.11258462779654L178.69133303960166,120.43290467741738L181.0119997024536,120.74801921939225L183.33266636530558,121.0580876529973L185.65333302815753,121.36326251119003L187.97399969100954,121.6636989572001L190.2946663538615,121.95953733940931L192.61533301671346,122.25090911729073L194.9359996795654,122.53794716703561L197.25666634241742,122.82076978614974L199.57733300526937,123.09948459633806L201.89799966812134,123.37421113542571L204.2186663309733,123.64503366193986L206.5393329938253,123.91198826657524L208.85999965667725,124.17521617630072L211.1806663195292,124.43474330531645L213.5013329823812,124.69062859540733L215.82199964523315,124.94302891278602L218.14266630808513,125.19206441313908L220.46333297093707,125.43783419013214L222.78399963378908,125.68041795015486L225.10466629664103,125.91990208883203L227.425332959493,126.15635097937067L229.74599962234495,126.3897964956315L232.06666628519696,126.62028765506899L234.3873329480489,126.84788376129393L236.70799961090088,127.07264161095776L239.02866627375283,127.29462710377902L241.34933293660484,127.51391642279023L243.6699995994568,127.73057456370645L245.99066626230874,127.9446646313261L248.31133292516074,128.15624281012893L250.6319995880127,128.36535534663494L252.95266625086467,128.5720521675359" fill="none"></path></g></g></g></g><g opacity="0.2"><g><g><g><path style="fill: none;" stroke="rgb(255, 112, 67)" stroke-width="2px" d="M25.52733329137166,-5.523287614670892L27.847999954223635,13.968455899509365L30.168666617075605,28.46235602214705L32.48933327992757,39.46201831066449L34.80999994277954,48.0474432705883L37.13066660563151,54.93368440673832L39.45133326848348,60.58943719470916L41.77199993133545,65.33100960673521L44.09266659418741,69.37704584019602L46.41333325703938,72.882122347592L48.73399991989135,75.95866625678975L51.05466658274332,78.68932727299085L53.3753332455953,81.13635062394887L55.69599990844727,83.34776301095377L58.01666657129924,85.36078139086302L60.33733323415121,87.20484086169647L62.65799989700317,88.90381736209355L64.97866655985514,90.47702089493215L67.29933322270712,91.93982714040638L69.61999988555908,93.3053746148314L71.94066654841106,94.58488770939313L74.26133321126302,95.78747418824544L76.581999874115,96.92114734097211L78.90266653696696,97.99280187521742L81.22333319981894,99.00820909521228L83.5439998626709,99.97272565843416L85.86466652552288,100.89082589264102L88.18533318837483,101.7664875137815L90.5059998512268,102.60336037758056L92.82666651407877,103.40436147573388L95.14733317693074,104.17237404961995L97.4679998397827,104.90995348039365L99.78866650263468,105.61955389825843L102.10933316548665,106.30307014244802L104.42999982833862,106.96217526439776L106.7506664911906,107.59844106459158L109.07133315404256,108.21349720119998L111.39199981689454,108.80879011638606L113.7126664797465,109.3856360725183L116.03333314259848,109.94440150161134L118.35399980545044,110.48681731278708L120.67466646830242,111.0138526222948L122.99533313115437,111.52637047395854L125.31599979400634,112.02506998149045L127.63666645685831,112.51075150955413L129.95733311971028,112.98407560007078L132.27799978256226,113.4456883305399L134.59866644541424,113.89625506435654L136.9193331082662,114.33697152704224L139.23999977111816,114.76820897208552L141.5606664339701,115.18977936200517L143.88133309682212,115.60207805765913L146.20199975967407,116.0056305997L148.52266642252604,116.40079859866856L150.843333085378,116.7879243792101L153.16399974823,117.16734062302211L155.48466641108195,117.53946679833194L157.80533307393392,117.90459219357217L160.12599973678587,118.26290002475017L162.44666639963788,118.61466511587693L164.76733306248983,118.96008996885527L167.0879997253418,119.29937708558803L169.40866638819375,119.63291700545929L171.72933305104576,119.96108580343142L174.0499997138977,120.28375812118364L176.37066637674965,120.60112681767103L178.69133303960166,120.91338475184867L181.0119997024536,121.22069103235452L183.33266636530558,121.52319030340489L185.65333302815753,121.82102479847913L187.97399969100954,122.11435362621522L190.2946663538615,122.40329491272313L192.61533301671346,122.68796678411285L194.9359996795654,122.96850424165294L197.25666634241742,123.24500371482094L199.57733300526937,123.51755681162052L201.89799966812134,123.78630094405719L204.2186663309733,124.05126745171113L206.5393329938253,124.31242017352827L208.85999965667725,124.570058040889L211.1806663195292,124.82403399884004L213.5013329823812,125.07445653054364L215.82199964523315,125.32162938885409L218.14266630808513,125.56561766366869L220.46333297093707,125.80648885562172L222.78399963378908,126.04429359018891L225.10466629664103,126.27912829684782L227.425332959493,126.51102431517862L229.74599962234495,126.73996477002272L232.06666628519696,126.96602439422526L234.3873329480489,127.18927792063133L236.70799961090088,127.40977838545354L239.02866627375283,127.6276053430109L241.34933293660484,127.84285040130706L243.6699995994568,128.0555617750808L245.99066626230874,128.26579973275557L248.31133292516074,128.47361007833322L250.6319995880127,128.67902415139395L252.95266625086467,128.8820973988873" fill="none"></path></g></g></g></g></g><g><g opacity="0.675719"><span style="white-space: normal;" fill="rgb(0, 0, 0)" stroke="none" stroke-width="1px">Alt + Scroll to Zoom</span></g></g></g><g transform="translate(51, 177)" clip-path="url(#clip_1)"><clipPath id="clip_1"><rect width="278" height="22"></rect></clipPath><g><g><line x1="0" y1="0" x2="0" y2="5" style="visibility: inherit;" fill="rgb(0, 0, 0)" stroke="rgb(204, 204, 204)" stroke-width="1px"></line><line x1="23.20666662851969" y1="0" x2="23.20666662851969" y2="5" style="visibility: inherit;" fill="rgb(0, 0, 0)" stroke="rgb(204, 204, 204)" stroke-width="1px"></line><line x1="46.41333325703938" y1="0" x2="46.41333325703938" y2="5" style="visibility: inherit;" fill="rgb(0, 0, 0)" stroke="rgb(204, 204, 204)" stroke-width="1px"></line><line x1="69.61999988555908" y1="0" x2="69.61999988555908" y2="5" style="visibility: inherit;" fill="rgb(0, 0, 0)" stroke="rgb(204, 204, 204)" stroke-width="1px"></line><line x1="92.82666651407877" y1="0" x2="92.82666651407877" y2="5" style="visibility: inherit;" fill="rgb(0, 0, 0)" stroke="rgb(204, 204, 204)" stroke-width="1px"></line><line x1="116.03333314259848" y1="0" x2="116.03333314259848" y2="5" style="visibility: inherit;" fill="rgb(0, 0, 0)" stroke="rgb(204, 204, 204)" stroke-width="1px"></line><line x1="139.23999977111816" y1="0" x2="139.23999977111816" y2="5" style="visibility: inherit;" fill="rgb(0, 0, 0)" stroke="rgb(204, 204, 204)" stroke-width="1px"></line><line x1="162.44666639963788" y1="0" x2="162.44666639963788" y2="5" style="visibility: inherit;" fill="rgb(0, 0, 0)" stroke="rgb(204, 204, 204)" stroke-width="1px"></line><line x1="185.65333302815753" y1="0" x2="185.65333302815753" y2="5" style="visibility: inherit;" fill="rgb(0, 0, 0)" stroke="rgb(204, 204, 204)" stroke-width="1px"></line><line x1="208.85999965667725" y1="0" x2="208.85999965667725" y2="5" style="visibility: inherit;" fill="rgb(0, 0, 0)" stroke="rgb(204, 204, 204)" stroke-width="1px"></line><line x1="232.06666628519696" y1="0" x2="232.06666628519696" y2="5" style="visibility: inherit;" fill="rgb(0, 0, 0)" stroke="rgb(204, 204, 204)" stroke-width="1px"></line><line x1="255.27333291371662" y1="0" x2="255.27333291371662" y2="5" style="visibility: inherit;" fill="rgb(0, 0, 0)" stroke="rgb(204, 204, 204)" stroke-width="1px"></line><line x1="278.4799995422363" y1="0" x2="278.4799995422363" y2="5" style="visibility: inherit;" fill="rgb(0, 0, 0)" stroke="rgb(204, 204, 204)" stroke-width="1px"></line></g><g transform="translate(0, 8)"><text style="text-anchor: middle; visibility: hidden; font-family: &quot;Helvetica Neue&quot;, sans-serif; font-size: 12px; font-weight: 200;" x="0" y="0" dx="0em" dy="0.95em" fill="rgb(50, 49, 63)" stroke="none" stroke-width="1px">-10</text><text style="text-anchor: middle; visibility: inherit; font-family: &quot;Helvetica Neue&quot;, sans-serif; font-size: 12px; font-weight: 200;" x="23.20666662851969" y="0" dx="0em" dy="0.95em" fill="rgb(50, 49, 63)" stroke="none" stroke-width="1px">0</text><text style="text-anchor: middle; visibility: hidden; font-family: &quot;Helvetica Neue&quot;, sans-serif; font-size: 12px; font-weight: 200;" x="46.41333325703938" y="0" dx="0em" dy="0.95em" fill="rgb(50, 49, 63)" stroke="none" stroke-width="1px">10</text><text style="text-anchor: middle; visibility: inherit; font-family: &quot;Helvetica Neue&quot;, sans-serif; font-size: 12px; font-weight: 200;" x="69.61999988555908" y="0" dx="0em" dy="0.95em" fill="rgb(50, 49, 63)" stroke="none" stroke-width="1px">20</text><text style="text-anchor: middle; visibility: hidden; font-family: &quot;Helvetica Neue&quot;, sans-serif; font-size: 12px; font-weight: 200;" x="92.82666651407877" y="0" dx="0em" dy="0.95em" fill="rgb(50, 49, 63)" stroke="none" stroke-width="1px">30</text><text style="text-anchor: middle; visibility: inherit; font-family: &quot;Helvetica Neue&quot;, sans-serif; font-size: 12px; font-weight: 200;" x="116.03333314259848" y="0" dx="0em" dy="0.95em" fill="rgb(50, 49, 63)" stroke="none" stroke-width="1px">40</text><text style="text-anchor: middle; visibility: hidden; font-family: &quot;Helvetica Neue&quot;, sans-serif; font-size: 12px; font-weight: 200;" x="139.23999977111816" y="0" dx="0em" dy="0.95em" fill="rgb(50, 49, 63)" stroke="none" stroke-width="1px">50</text><text style="text-anchor: middle; visibility: inherit; font-family: &quot;Helvetica Neue&quot;, sans-serif; font-size: 12px; font-weight: 200;" x="162.44666639963788" y="0" dx="0em" dy="0.95em" fill="rgb(50, 49, 63)" stroke="none" stroke-width="1px">60</text><text style="text-anchor: middle; visibility: hidden; font-family: &quot;Helvetica Neue&quot;, sans-serif; font-size: 12px; font-weight: 200;" x="185.65333302815753" y="0" dx="0em" dy="0.95em" fill="rgb(50, 49, 63)" stroke="none" stroke-width="1px">70</text><text style="text-anchor: middle; visibility: inherit; font-family: &quot;Helvetica Neue&quot;, sans-serif; font-size: 12px; font-weight: 200;" x="208.85999965667725" y="0" dx="0em" dy="0.95em" fill="rgb(50, 49, 63)" stroke="none" stroke-width="1px">80</text><text style="text-anchor: middle; visibility: hidden; font-family: &quot;Helvetica Neue&quot;, sans-serif; font-size: 12px; font-weight: 200;" x="232.06666628519696" y="0" dx="0em" dy="0.95em" fill="rgb(50, 49, 63)" stroke="none" stroke-width="1px">90</text><text style="text-anchor: middle; visibility: inherit; font-family: &quot;Helvetica Neue&quot;, sans-serif; font-size: 12px; font-weight: 200;" x="255.27333291371662" y="0" dx="0em" dy="0.95em" fill="rgb(50, 49, 63)" stroke="none" stroke-width="1px">100</text><text style="text-anchor: middle; visibility: hidden; font-family: &quot;Helvetica Neue&quot;, sans-serif; font-size: 12px; font-weight: 200;" x="278.4799995422363" y="0" dx="0em" dy="0.95em" fill="rgb(50, 49, 63)" stroke="none" stroke-width="1px">110</text></g><line x1="0" y1="0" x2="278.4799995422363" y2="0" fill="rgb(0, 0, 0)" stroke="rgb(204, 204, 204)" stroke-width="1px"></line></g></g></g></g></svg>